<?xml version="1.0" encoding="UTF-8"?>
<!DOCTYPE svg PUBLIC "-//W3C//DTD SVG 1.1//EN" "http://www.w3.org/Graphics/SVG/1.1/DTD/svg11.dtd">
<svg xmlns="http://www.w3.org/2000/svg" version="1.1" width="1080px" height="1080px" style="shape-rendering:geometricPrecision; text-rendering:geometricPrecision; image-rendering:optimizeQuality; fill-rule:evenodd; clip-rule:evenodd" xmlns:xlink="http://www.w3.org/1999/xlink">
<g><path style="opacity:1" fill="#000000" d="M -0.5,-0.5 C 359.5,-0.5 719.5,-0.5 1079.5,-0.5C 1079.5,359.5 1079.5,719.5 1079.5,1079.5C 719.5,1079.5 359.5,1079.5 -0.5,1079.5C -0.5,719.5 -0.5,359.5 -0.5,-0.5 Z"/></g>
<g><path style="opacity:1" fill="#fcfcfc" d="M 533.5,233.5 C 539.762,232.872 545.762,233.705 551.5,236C 556.134,241.111 556.634,246.611 553,252.5C 502.975,320.703 450.475,387.036 395.5,451.5C 424.828,452.333 454.161,452.833 483.5,453C 494.833,453.667 506.167,454.333 517.5,455C 530.8,457.895 534.3,465.395 528,477.5C 506.718,505.051 484.718,532.051 462,558.5C 415.748,603.751 369.748,649.418 324,695.5C 296.765,727.403 266.931,756.57 234.5,783C 222.021,791.464 209.021,799.13 195.5,806C 191.259,807.457 186.926,807.791 182.5,807C 178.938,805.186 175.271,803.52 171.5,802C 167.797,798.604 166.631,794.437 168,789.5C 187.376,744.074 210.376,700.741 237,659.5C 258.5,627.167 280,594.833 301.5,562.5C 292.184,561.335 282.851,561.168 273.5,562C 247.924,565.036 222.257,566.703 196.5,567C 192.264,569.22 189.264,568.054 187.5,563.5C 213.273,501.619 238.773,439.619 264,377.5C 279.944,339.668 296.278,302.002 313,264.5C 315.962,257.864 320.962,253.864 328,252.5C 353.028,256.851 378.195,257.685 403.5,255C 447.051,248.252 490.384,241.085 533.5,233.5 Z"/></g>
<g><path style="opacity:1" fill="#f3f3f3" d="M 707.5,233.5 C 708.167,239.833 708.833,246.167 709.5,252.5C 709.967,278.832 710.467,305.166 711,331.5C 711.504,335.02 713.337,337.52 716.5,339C 735.5,339.667 754.5,339.667 773.5,339C 779.835,335.882 782.502,330.715 781.5,323.5C 780.744,297.671 780.077,271.838 779.5,246C 779.833,241.167 780.167,236.333 780.5,231.5C 822.051,252.599 839.217,286.266 832,332.5C 824.528,359.97 808.194,380.304 783,393.5C 784.103,475.001 785.603,556.501 787.5,638C 787.833,639.833 788.167,641.667 788.5,643.5C 831.604,665.712 848.438,700.712 839,748.5C 831.339,774.497 815.339,793.497 791,805.5C 790.059,778.507 789.392,751.507 789,724.5C 788.917,718.058 788.251,711.725 787,705.5C 785.786,703.951 784.286,702.785 782.5,702C 762.768,701.037 743.102,701.37 723.5,703C 721.622,704.543 720.122,706.376 719,708.5C 718.948,741.167 718.948,773.834 719,806.5C 688.886,792.704 671.22,769.371 666,736.5C 662.812,694.865 679.479,664.198 716,644.5C 715.617,561.151 714.117,477.817 711.5,394.5C 676.996,378.187 658.996,350.854 657.5,312.5C 658.814,276.234 675.48,249.901 707.5,233.5 Z"/></g>
<g><path style="opacity:1" fill="#999999" d="M 707.5,233.5 C 707.56,232.957 707.893,232.624 708.5,232.5C 709.497,239.134 709.83,245.8 709.5,252.5C 708.833,246.167 708.167,239.833 707.5,233.5 Z"/></g>
<g><path style="opacity:1" fill="#010101" d="M 512.5,257.5 C 514.527,257.338 516.527,257.505 518.5,258C 462.418,326.086 405.585,393.586 348,460.5C 346.076,470.152 349.576,476.985 358.5,481C 380.315,482.076 402.148,482.576 424,482.5C 446.842,482.223 469.676,482.057 492.5,482C 466.968,512.204 439.968,541.204 411.5,569C 389.134,590.368 366.467,611.368 343.5,632C 312.803,663.029 282.47,694.363 252.5,726C 238.581,738.59 224.081,750.423 209,761.5C 215.141,746.882 222.141,732.548 230,718.5C 247.92,687.663 265.586,656.663 283,625.5C 299.678,601.477 315.345,576.81 330,551.5C 330.86,547.048 329.36,543.548 325.5,541C 319.388,537.128 312.721,535.628 305.5,536.5C 271.42,538.568 238.087,544.401 205.5,554C 219.732,531.043 232.566,507.21 244,482.5C 274.638,409.739 306.138,337.406 338.5,265.5C 346.925,268.606 355.592,270.773 364.5,272C 387.927,273.134 411.26,272.134 434.5,269C 460.6,264.824 486.6,260.991 512.5,257.5 Z"/></g>
</svg>
